<svg xmlns="http://www.w3.org/2000/svg" xmlnsXlink="http://www.w3.org/1999/xlink" width="300px" height="300px" viewBox="0 0 100 100" preserveAspectRatio="xMidYMid">
    <g transform="rotate(0 50 50)">
        <rect x="48.5" y="24.5" rx="1.5" ry="0.5" width="3" height="1" fill="#3f88c5">
            <animate attributeName="opacity" values="1;0" keyTimes="0;1" dur="0.29411764705882354s" begin="-0.2911764705882353s" repeatCount="indefinite"></animate>
        </rect>
    </g>
    <g transform="rotate(3.6 50 50)">
        <rect x="48.5" y="24.5" rx="1.5" ry="0.5" width="3" height="1" fill="#3f88c5">
            <animate attributeName="opacity" values="1;0" keyTimes="0;1" dur="0.29411764705882354s" begin="-0.28823529411764703s" repeatCount="indefinite"></animate>
        </rect>
    </g>
    <g transform="rotate(7.2 50 50)">
        <rect x="48.5" y="24.5" rx="1.5" ry="0.5" width="3" height="1" fill="#3f88c5">
            <animate attributeName="opacity" values="1;0" keyTimes="0;1" dur="0.29411764705882354s" begin="-0.2852941176470588s" repeatCount="indefinite"></animate>
        </rect>
    </g>
    <g transform="rotate(10.8 50 50)">
        <rect x="48.5" y="24.5" rx="1.5" ry="0.5" width="3" height="1" fill="#3f88c5">
            <animate attributeName="opacity" values="1;0" keyTimes="0;1" dur="0.29411764705882354s" begin="-0.2823529411764706s" repeatCount="indefinite"></animate>
        </rect>
    </g>
    <g transform="rotate(14.4 50 50)">
        <rect x="48.5" y="24.5" rx="1.5" ry="0.5" width="3" height="1" fill="#3f88c5">
            <animate attributeName="opacity" values="1;0" keyTimes="0;1" dur="0.29411764705882354s" begin="-0.27941176470588236s" repeatCount="indefinite"></animate>
        </rect>
    </g>
    <g transform="rotate(18 50 50)">
        <rect x="48.5" y="24.5" rx="1.5" ry="0.5" width="3" height="1" fill="#3f88c5">
            <animate attributeName="opacity" values="1;0" keyTimes="0;1" dur="0.29411764705882354s" begin="-0.27647058823529413s" repeatCount="indefinite"></animate>
        </rect>
    </g>
    <g transform="rotate(21.6 50 50)">
        <rect x="48.5" y="24.5" rx="1.5" ry="0.5" width="3" height="1" fill="#3f88c5">
            <animate attributeName="opacity" values="1;0" keyTimes="0;1" dur="0.29411764705882354s" begin="-0.2735294117647059s" repeatCount="indefinite"></animate>
        </rect>
    </g>
    <g transform="rotate(25.2 50 50)">
        <rect x="48.5" y="24.5" rx="1.5" ry="0.5" width="3" height="1" fill="#3f88c5">
            <animate attributeName="opacity" values="1;0" keyTimes="0;1" dur="0.29411764705882354s" begin="-0.27058823529411763s" repeatCount="indefinite"></animate>
        </rect>
    </g>
    <g transform="rotate(28.8 50 50)">
        <rect x="48.5" y="24.5" rx="1.5" ry="0.5" width="3" height="1" fill="#3f88c5">
            <animate attributeName="opacity" values="1;0" keyTimes="0;1" dur="0.29411764705882354s" begin="-0.2676470588235294s" repeatCount="indefinite"></animate>
        </rect>
    </g>
    <g transform="rotate(32.4 50 50)">
        <rect x="48.5" y="24.5" rx="1.5" ry="0.5" width="3" height="1" fill="#3f88c5">
            <animate attributeName="opacity" values="1;0" keyTimes="0;1" dur="0.29411764705882354s" begin="-0.2647058823529412s" repeatCount="indefinite"></animate>
        </rect>
    </g>
    <g transform="rotate(36 50 50)">
        <rect x="48.5" y="24.5" rx="1.5" ry="0.5" width="3" height="1" fill="#3f88c5">
            <animate attributeName="opacity" values="1;0" keyTimes="0;1" dur="0.29411764705882354s" begin="-0.26176470588235295s" repeatCount="indefinite"></animate>
        </rect>
    </g>
    <g transform="rotate(39.6 50 50)">
        <rect x="48.5" y="24.5" rx="1.5" ry="0.5" width="3" height="1" fill="#3f88c5">
            <animate attributeName="opacity" values="1;0" keyTimes="0;1" dur="0.29411764705882354s" begin="-0.25882352941176473s" repeatCount="indefinite"></animate>
        </rect>
    </g>
    <g transform="rotate(43.2 50 50)">
        <rect x="48.5" y="24.5" rx="1.5" ry="0.5" width="3" height="1" fill="#3f88c5">
            <animate attributeName="opacity" values="1;0" keyTimes="0;1" dur="0.29411764705882354s" begin="-0.25588235294117645s" repeatCount="indefinite"></animate>
        </rect>
    </g>
    <g transform="rotate(46.8 50 50)">
        <rect x="48.5" y="24.5" rx="1.5" ry="0.5" width="3" height="1" fill="#3f88c5">
            <animate attributeName="opacity" values="1;0" keyTimes="0;1" dur="0.29411764705882354s" begin="-0.2529411764705882s" repeatCount="indefinite"></animate>
        </rect>
    </g>
    <g transform="rotate(50.4 50 50)">
        <rect x="48.5" y="24.5" rx="1.5" ry="0.5" width="3" height="1" fill="#3f88c5">
            <animate attributeName="opacity" values="1;0" keyTimes="0;1" dur="0.29411764705882354s" begin="-0.25s" repeatCount="indefinite"></animate>
        </rect>
    </g>
    <g transform="rotate(54 50 50)">
        <rect x="48.5" y="24.5" rx="1.5" ry="0.5" width="3" height="1" fill="#3f88c5">
            <animate attributeName="opacity" values="1;0" keyTimes="0;1" dur="0.29411764705882354s" begin="-0.24705882352941178s" repeatCount="indefinite"></animate>
        </rect>
    </g>
    <g transform="rotate(57.6 50 50)">
        <rect x="48.5" y="24.5" rx="1.5" ry="0.5" width="3" height="1" fill="#3f88c5">
            <animate attributeName="opacity" values="1;0" keyTimes="0;1" dur="0.29411764705882354s" begin="-0.24411764705882352s" repeatCount="indefinite"></animate>
        </rect>
    </g>
    <g transform="rotate(61.2 50 50)">
        <rect x="48.5" y="24.5" rx="1.5" ry="0.5" width="3" height="1" fill="#3f88c5">
            <animate attributeName="opacity" values="1;0" keyTimes="0;1" dur="0.29411764705882354s" begin="-0.2411764705882353s" repeatCount="indefinite"></animate>
        </rect>
    </g>
    <g transform="rotate(64.8 50 50)">
        <rect x="48.5" y="24.5" rx="1.5" ry="0.5" width="3" height="1" fill="#3f88c5">
            <animate attributeName="opacity" values="1;0" keyTimes="0;1" dur="0.29411764705882354s" begin="-0.23823529411764705s" repeatCount="indefinite"></animate>
        </rect>
    </g>
    <g transform="rotate(68.4 50 50)">
        <rect x="48.5" y="24.5" rx="1.5" ry="0.5" width="3" height="1" fill="#3f88c5">
            <animate attributeName="opacity" values="1;0" keyTimes="0;1" dur="0.29411764705882354s" begin="-0.23529411764705882s" repeatCount="indefinite"></animate>
        </rect>
    </g>
    <g transform="rotate(72 50 50)">
        <rect x="48.5" y="24.5" rx="1.5" ry="0.5" width="3" height="1" fill="#3f88c5">
            <animate attributeName="opacity" values="1;0" keyTimes="0;1" dur="0.29411764705882354s" begin="-0.2323529411764706s" repeatCount="indefinite"></animate>
        </rect>
    </g>
    <g transform="rotate(75.6 50 50)">
        <rect x="48.5" y="24.5" rx="1.5" ry="0.5" width="3" height="1" fill="#3f88c5">
            <animate attributeName="opacity" values="1;0" keyTimes="0;1" dur="0.29411764705882354s" begin="-0.22941176470588234s" repeatCount="indefinite"></animate>
        </rect>
    </g>
    <g transform="rotate(79.2 50 50)">
        <rect x="48.5" y="24.5" rx="1.5" ry="0.5" width="3" height="1" fill="#3f88c5">
            <animate attributeName="opacity" values="1;0" keyTimes="0;1" dur="0.29411764705882354s" begin="-0.22647058823529412s" repeatCount="indefinite"></animate>
        </rect>
    </g>
    <g transform="rotate(82.8 50 50)">
        <rect x="48.5" y="24.5" rx="1.5" ry="0.5" width="3" height="1" fill="#3f88c5">
            <animate attributeName="opacity" values="1;0" keyTimes="0;1" dur="0.29411764705882354s" begin="-0.2235294117647059s" repeatCount="indefinite"></animate>
        </rect>
    </g>
    <g transform="rotate(86.4 50 50)">
        <rect x="48.5" y="24.5" rx="1.5" ry="0.5" width="3" height="1" fill="#3f88c5">
            <animate attributeName="opacity" values="1;0" keyTimes="0;1" dur="0.29411764705882354s" begin="-0.22058823529411764s" repeatCount="indefinite"></animate>
        </rect>
    </g>
    <g transform="rotate(90 50 50)">
        <rect x="48.5" y="24.5" rx="1.5" ry="0.5" width="3" height="1" fill="#3f88c5">
            <animate attributeName="opacity" values="1;0" keyTimes="0;1" dur="0.29411764705882354s" begin="-0.21764705882352942s" repeatCount="indefinite"></animate>
        </rect>
    </g>
    <g transform="rotate(93.6 50 50)">
        <rect x="48.5" y="24.5" rx="1.5" ry="0.5" width="3" height="1" fill="#3f88c5">
            <animate attributeName="opacity" values="1;0" keyTimes="0;1" dur="0.29411764705882354s" begin="-0.21470588235294116s" repeatCount="indefinite"></animate>
        </rect>
    </g>
    <g transform="rotate(97.2 50 50)">
        <rect x="48.5" y="24.5" rx="1.5" ry="0.5" width="3" height="1" fill="#3f88c5">
            <animate attributeName="opacity" values="1;0" keyTimes="0;1" dur="0.29411764705882354s" begin="-0.21176470588235294s" repeatCount="indefinite"></animate>
        </rect>
    </g>
    <g transform="rotate(100.8 50 50)">
        <rect x="48.5" y="24.5" rx="1.5" ry="0.5" width="3" height="1" fill="#3f88c5">
            <animate attributeName="opacity" values="1;0" keyTimes="0;1" dur="0.29411764705882354s" begin="-0.2088235294117647s" repeatCount="indefinite"></animate>
        </rect>
    </g>
    <g transform="rotate(104.4 50 50)">
        <rect x="48.5" y="24.5" rx="1.5" ry="0.5" width="3" height="1" fill="#3f88c5">
            <animate attributeName="opacity" values="1;0" keyTimes="0;1" dur="0.29411764705882354s" begin="-0.20588235294117646s" repeatCount="indefinite"></animate>
        </rect>
    </g>
    <g transform="rotate(108 50 50)">
        <rect x="48.5" y="24.5" rx="1.5" ry="0.5" width="3" height="1" fill="#3f88c5">
            <animate attributeName="opacity" values="1;0" keyTimes="0;1" dur="0.29411764705882354s" begin="-0.20294117647058824s" repeatCount="indefinite"></animate>
        </rect>
    </g>
    <g transform="rotate(111.6 50 50)">
        <rect x="48.5" y="24.5" rx="1.5" ry="0.5" width="3" height="1" fill="#3f88c5">
            <animate attributeName="opacity" values="1;0" keyTimes="0;1" dur="0.29411764705882354s" begin="-0.2s" repeatCount="indefinite"></animate>
        </rect>
    </g>
    <g transform="rotate(115.2 50 50)">
        <rect x="48.5" y="24.5" rx="1.5" ry="0.5" width="3" height="1" fill="#3f88c5">
            <animate attributeName="opacity" values="1;0" keyTimes="0;1" dur="0.29411764705882354s" begin="-0.19705882352941176s" repeatCount="indefinite"></animate>
        </rect>
    </g>
    <g transform="rotate(118.8 50 50)">
        <rect x="48.5" y="24.5" rx="1.5" ry="0.5" width="3" height="1" fill="#3f88c5">
            <animate attributeName="opacity" values="1;0" keyTimes="0;1" dur="0.29411764705882354s" begin="-0.19411764705882353s" repeatCount="indefinite"></animate>
        </rect>
    </g>
    <g transform="rotate(122.4 50 50)">
        <rect x="48.5" y="24.5" rx="1.5" ry="0.5" width="3" height="1" fill="#3f88c5">
            <animate attributeName="opacity" values="1;0" keyTimes="0;1" dur="0.29411764705882354s" begin="-0.19117647058823528s" repeatCount="indefinite"></animate>
        </rect>
    </g>
    <g transform="rotate(126 50 50)">
        <rect x="48.5" y="24.5" rx="1.5" ry="0.5" width="3" height="1" fill="#3f88c5">
            <animate attributeName="opacity" values="1;0" keyTimes="0;1" dur="0.29411764705882354s" begin="-0.18823529411764706s" repeatCount="indefinite"></animate>
        </rect>
    </g>
    <g transform="rotate(129.6 50 50)">
        <rect x="48.5" y="24.5" rx="1.5" ry="0.5" width="3" height="1" fill="#3f88c5">
            <animate attributeName="opacity" values="1;0" keyTimes="0;1" dur="0.29411764705882354s" begin="-0.18529411764705883s" repeatCount="indefinite"></animate>
        </rect>
    </g>
    <g transform="rotate(133.2 50 50)">
        <rect x="48.5" y="24.5" rx="1.5" ry="0.5" width="3" height="1" fill="#3f88c5">
            <animate attributeName="opacity" values="1;0" keyTimes="0;1" dur="0.29411764705882354s" begin="-0.18235294117647058s" repeatCount="indefinite"></animate>
        </rect>
    </g>
    <g transform="rotate(136.8 50 50)">
        <rect x="48.5" y="24.5" rx="1.5" ry="0.5" width="3" height="1" fill="#3f88c5">
            <animate attributeName="opacity" values="1;0" keyTimes="0;1" dur="0.29411764705882354s" begin="-0.17941176470588235s" repeatCount="indefinite"></animate>
        </rect>
    </g>
    <g transform="rotate(140.4 50 50)">
        <rect x="48.5" y="24.5" rx="1.5" ry="0.5" width="3" height="1" fill="#3f88c5">
            <animate attributeName="opacity" values="1;0" keyTimes="0;1" dur="0.29411764705882354s" begin="-0.17647058823529413s" repeatCount="indefinite"></animate>
        </rect>
    </g>
    <g transform="rotate(144 50 50)">
        <rect x="48.5" y="24.5" rx="1.5" ry="0.5" width="3" height="1" fill="#3f88c5">
            <animate attributeName="opacity" values="1;0" keyTimes="0;1" dur="0.29411764705882354s" begin="-0.17352941176470588s" repeatCount="indefinite"></animate>
        </rect>
    </g>
    <g transform="rotate(147.6 50 50)">
        <rect x="48.5" y="24.5" rx="1.5" ry="0.5" width="3" height="1" fill="#3f88c5">
            <animate attributeName="opacity" values="1;0" keyTimes="0;1" dur="0.29411764705882354s" begin="-0.17058823529411765s" repeatCount="indefinite"></animate>
        </rect>
    </g>
    <g transform="rotate(151.2 50 50)">
        <rect x="48.5" y="24.5" rx="1.5" ry="0.5" width="3" height="1" fill="#3f88c5">
            <animate attributeName="opacity" values="1;0" keyTimes="0;1" dur="0.29411764705882354s" begin="-0.1676470588235294s" repeatCount="indefinite"></animate>
        </rect>
    </g>
    <g transform="rotate(154.8 50 50)">
        <rect x="48.5" y="24.5" rx="1.5" ry="0.5" width="3" height="1" fill="#3f88c5">
            <animate attributeName="opacity" values="1;0" keyTimes="0;1" dur="0.29411764705882354s" begin="-0.16470588235294117s" repeatCount="indefinite"></animate>
        </rect>
    </g>
    <g transform="rotate(158.4 50 50)">
        <rect x="48.5" y="24.5" rx="1.5" ry="0.5" width="3" height="1" fill="#3f88c5">
            <animate attributeName="opacity" values="1;0" keyTimes="0;1" dur="0.29411764705882354s" begin="-0.16176470588235295s" repeatCount="indefinite"></animate>
        </rect>
    </g>
    <g transform="rotate(162 50 50)">
        <rect x="48.5" y="24.5" rx="1.5" ry="0.5" width="3" height="1" fill="#3f88c5">
            <animate attributeName="opacity" values="1;0" keyTimes="0;1" dur="0.29411764705882354s" begin="-0.1588235294117647s" repeatCount="indefinite"></animate>
        </rect>
    </g>
    <g transform="rotate(165.6 50 50)">
        <rect x="48.5" y="24.5" rx="1.5" ry="0.5" width="3" height="1" fill="#3f88c5">
            <animate attributeName="opacity" values="1;0" keyTimes="0;1" dur="0.29411764705882354s" begin="-0.15588235294117647s" repeatCount="indefinite"></animate>
        </rect>
    </g>
    <g transform="rotate(169.2 50 50)">
        <rect x="48.5" y="24.5" rx="1.5" ry="0.5" width="3" height="1" fill="#3f88c5">
            <animate attributeName="opacity" values="1;0" keyTimes="0;1" dur="0.29411764705882354s" begin="-0.15294117647058825s" repeatCount="indefinite"></animate>
        </rect>
    </g>
    <g transform="rotate(172.8 50 50)">
        <rect x="48.5" y="24.5" rx="1.5" ry="0.5" width="3" height="1" fill="#3f88c5">
            <animate attributeName="opacity" values="1;0" keyTimes="0;1" dur="0.29411764705882354s" begin="-0.15s" repeatCount="indefinite"></animate>
        </rect>
    </g>
    <g transform="rotate(176.4 50 50)">
        <rect x="48.5" y="24.5" rx="1.5" ry="0.5" width="3" height="1" fill="#3f88c5">
            <animate attributeName="opacity" values="1;0" keyTimes="0;1" dur="0.29411764705882354s" begin="-0.14705882352941177s" repeatCount="indefinite"></animate>
        </rect>
    </g>
    <g transform="rotate(180 50 50)">
        <rect x="48.5" y="24.5" rx="1.5" ry="0.5" width="3" height="1" fill="#3f88c5">
            <animate attributeName="opacity" values="1;0" keyTimes="0;1" dur="0.29411764705882354s" begin="-0.14411764705882352s" repeatCount="indefinite"></animate>
        </rect>
    </g>
    <g transform="rotate(183.6 50 50)">
        <rect x="48.5" y="24.5" rx="1.5" ry="0.5" width="3" height="1" fill="#3f88c5">
            <animate attributeName="opacity" values="1;0" keyTimes="0;1" dur="0.29411764705882354s" begin="-0.1411764705882353s" repeatCount="indefinite"></animate>
        </rect>
    </g>
    <g transform="rotate(187.2 50 50)">
        <rect x="48.5" y="24.5" rx="1.5" ry="0.5" width="3" height="1" fill="#3f88c5">
            <animate attributeName="opacity" values="1;0" keyTimes="0;1" dur="0.29411764705882354s" begin="-0.13823529411764707s" repeatCount="indefinite"></animate>
        </rect>
    </g>
    <g transform="rotate(190.8 50 50)">
        <rect x="48.5" y="24.5" rx="1.5" ry="0.5" width="3" height="1" fill="#3f88c5">
            <animate attributeName="opacity" values="1;0" keyTimes="0;1" dur="0.29411764705882354s" begin="-0.13529411764705881s" repeatCount="indefinite"></animate>
        </rect>
    </g>
    <g transform="rotate(194.4 50 50)">
        <rect x="48.5" y="24.5" rx="1.5" ry="0.5" width="3" height="1" fill="#3f88c5">
            <animate attributeName="opacity" values="1;0" keyTimes="0;1" dur="0.29411764705882354s" begin="-0.1323529411764706s" repeatCount="indefinite"></animate>
        </rect>
    </g>
    <g transform="rotate(198 50 50)">
        <rect x="48.5" y="24.5" rx="1.5" ry="0.5" width="3" height="1" fill="#3f88c5">
            <animate attributeName="opacity" values="1;0" keyTimes="0;1" dur="0.29411764705882354s" begin="-0.12941176470588237s" repeatCount="indefinite"></animate>
        </rect>
    </g>
    <g transform="rotate(201.6 50 50)">
        <rect x="48.5" y="24.5" rx="1.5" ry="0.5" width="3" height="1" fill="#3f88c5">
            <animate attributeName="opacity" values="1;0" keyTimes="0;1" dur="0.29411764705882354s" begin="-0.1264705882352941s" repeatCount="indefinite"></animate>
        </rect>
    </g>
    <g transform="rotate(205.2 50 50)">
        <rect x="48.5" y="24.5" rx="1.5" ry="0.5" width="3" height="1" fill="#3f88c5">
            <animate attributeName="opacity" values="1;0" keyTimes="0;1" dur="0.29411764705882354s" begin="-0.12352941176470589s" repeatCount="indefinite"></animate>
        </rect>
    </g>
    <g transform="rotate(208.8 50 50)">
        <rect x="48.5" y="24.5" rx="1.5" ry="0.5" width="3" height="1" fill="#3f88c5">
            <animate attributeName="opacity" values="1;0" keyTimes="0;1" dur="0.29411764705882354s" begin="-0.12058823529411765s" repeatCount="indefinite"></animate>
        </rect>
    </g>
    <g transform="rotate(212.4 50 50)">
        <rect x="48.5" y="24.5" rx="1.5" ry="0.5" width="3" height="1" fill="#3f88c5">
            <animate attributeName="opacity" values="1;0" keyTimes="0;1" dur="0.29411764705882354s" begin="-0.11764705882352941s" repeatCount="indefinite"></animate>
        </rect>
    </g>
    <g transform="rotate(216 50 50)">
        <rect x="48.5" y="24.5" rx="1.5" ry="0.5" width="3" height="1" fill="#3f88c5">
            <animate attributeName="opacity" values="1;0" keyTimes="0;1" dur="0.29411764705882354s" begin="-0.11470588235294117s" repeatCount="indefinite"></animate>
        </rect>
    </g>
    <g transform="rotate(219.6 50 50)">
        <rect x="48.5" y="24.5" rx="1.5" ry="0.5" width="3" height="1" fill="#3f88c5">
            <animate attributeName="opacity" values="1;0" keyTimes="0;1" dur="0.29411764705882354s" begin="-0.11176470588235295s" repeatCount="indefinite"></animate>
        </rect>
    </g>
    <g transform="rotate(223.2 50 50)">
        <rect x="48.5" y="24.5" rx="1.5" ry="0.5" width="3" height="1" fill="#3f88c5">
            <animate attributeName="opacity" values="1;0" keyTimes="0;1" dur="0.29411764705882354s" begin="-0.10882352941176471s" repeatCount="indefinite"></animate>
        </rect>
    </g>
    <g transform="rotate(226.8 50 50)">
        <rect x="48.5" y="24.5" rx="1.5" ry="0.5" width="3" height="1" fill="#3f88c5">
            <animate attributeName="opacity" values="1;0" keyTimes="0;1" dur="0.29411764705882354s" begin="-0.10588235294117647s" repeatCount="indefinite"></animate>
        </rect>
    </g>
    <g transform="rotate(230.4 50 50)">
        <rect x="48.5" y="24.5" rx="1.5" ry="0.5" width="3" height="1" fill="#3f88c5">
            <animate attributeName="opacity" values="1;0" keyTimes="0;1" dur="0.29411764705882354s" begin="-0.10294117647058823s" repeatCount="indefinite"></animate>
        </rect>
    </g>
    <g transform="rotate(234 50 50)">
        <rect x="48.5" y="24.5" rx="1.5" ry="0.5" width="3" height="1" fill="#3f88c5">
            <animate attributeName="opacity" values="1;0" keyTimes="0;1" dur="0.29411764705882354s" begin="-0.1s" repeatCount="indefinite"></animate>
        </rect>
    </g>
    <g transform="rotate(237.6 50 50)">
        <rect x="48.5" y="24.5" rx="1.5" ry="0.5" width="3" height="1" fill="#3f88c5">
            <animate attributeName="opacity" values="1;0" keyTimes="0;1" dur="0.29411764705882354s" begin="-0.09705882352941177s" repeatCount="indefinite"></animate>
        </rect>
    </g>
    <g transform="rotate(241.2 50 50)">
        <rect x="48.5" y="24.5" rx="1.5" ry="0.5" width="3" height="1" fill="#3f88c5">
            <animate attributeName="opacity" values="1;0" keyTimes="0;1" dur="0.29411764705882354s" begin="-0.09411764705882353s" repeatCount="indefinite"></animate>
        </rect>
    </g>
    <g transform="rotate(244.8 50 50)">
        <rect x="48.5" y="24.5" rx="1.5" ry="0.5" width="3" height="1" fill="#3f88c5">
            <animate attributeName="opacity" values="1;0" keyTimes="0;1" dur="0.29411764705882354s" begin="-0.09117647058823529s" repeatCount="indefinite"></animate>
        </rect>
    </g>
    <g transform="rotate(248.4 50 50)">
        <rect x="48.5" y="24.5" rx="1.5" ry="0.5" width="3" height="1" fill="#3f88c5">
            <animate attributeName="opacity" values="1;0" keyTimes="0;1" dur="0.29411764705882354s" begin="-0.08823529411764706s" repeatCount="indefinite"></animate>
        </rect>
    </g>
    <g transform="rotate(252 50 50)">
        <rect x="48.5" y="24.5" rx="1.5" ry="0.5" width="3" height="1" fill="#3f88c5">
            <animate attributeName="opacity" values="1;0" keyTimes="0;1" dur="0.29411764705882354s" begin="-0.08529411764705883s" repeatCount="indefinite"></animate>
        </rect>
    </g>
    <g transform="rotate(255.6 50 50)">
        <rect x="48.5" y="24.5" rx="1.5" ry="0.5" width="3" height="1" fill="#3f88c5">
            <animate attributeName="opacity" values="1;0" keyTimes="0;1" dur="0.29411764705882354s" begin="-0.08235294117647059s" repeatCount="indefinite"></animate>
        </rect>
    </g>
    <g transform="rotate(259.2 50 50)">
        <rect x="48.5" y="24.5" rx="1.5" ry="0.5" width="3" height="1" fill="#3f88c5">
            <animate attributeName="opacity" values="1;0" keyTimes="0;1" dur="0.29411764705882354s" begin="-0.07941176470588235s" repeatCount="indefinite"></animate>
        </rect>
    </g>
    <g transform="rotate(262.8 50 50)">
        <rect x="48.5" y="24.5" rx="1.5" ry="0.5" width="3" height="1" fill="#3f88c5">
            <animate attributeName="opacity" values="1;0" keyTimes="0;1" dur="0.29411764705882354s" begin="-0.07647058823529412s" repeatCount="indefinite"></animate>
        </rect>
    </g>
    <g transform="rotate(266.4 50 50)">
        <rect x="48.5" y="24.5" rx="1.5" ry="0.5" width="3" height="1" fill="#3f88c5">
            <animate attributeName="opacity" values="1;0" keyTimes="0;1" dur="0.29411764705882354s" begin="-0.07352941176470588s" repeatCount="indefinite"></animate>
        </rect>
    </g>
    <g transform="rotate(270 50 50)">
        <rect x="48.5" y="24.5" rx="1.5" ry="0.5" width="3" height="1" fill="#3f88c5">
            <animate attributeName="opacity" values="1;0" keyTimes="0;1" dur="0.29411764705882354s" begin="-0.07058823529411765s" repeatCount="indefinite"></animate>
        </rect>
    </g>
    <g transform="rotate(273.6 50 50)">
        <rect x="48.5" y="24.5" rx="1.5" ry="0.5" width="3" height="1" fill="#3f88c5">
            <animate attributeName="opacity" values="1;0" keyTimes="0;1" dur="0.29411764705882354s" begin="-0.06764705882352941s" repeatCount="indefinite"></animate>
        </rect>
    </g>
    <g transform="rotate(277.2 50 50)">
        <rect x="48.5" y="24.5" rx="1.5" ry="0.5" width="3" height="1" fill="#3f88c5">
            <animate attributeName="opacity" values="1;0" keyTimes="0;1" dur="0.29411764705882354s" begin="-0.06470588235294118s" repeatCount="indefinite"></animate>
        </rect>
    </g>
    <g transform="rotate(280.8 50 50)">
        <rect x="48.5" y="24.5" rx="1.5" ry="0.5" width="3" height="1" fill="#3f88c5">
            <animate attributeName="opacity" values="1;0" keyTimes="0;1" dur="0.29411764705882354s" begin="-0.061764705882352944s" repeatCount="indefinite"></animate>
        </rect>
    </g>
    <g transform="rotate(284.4 50 50)">
        <rect x="48.5" y="24.5" rx="1.5" ry="0.5" width="3" height="1" fill="#3f88c5">
            <animate attributeName="opacity" values="1;0" keyTimes="0;1" dur="0.29411764705882354s" begin="-0.058823529411764705s" repeatCount="indefinite"></animate>
        </rect>
    </g>
    <g transform="rotate(288 50 50)">
        <rect x="48.5" y="24.5" rx="1.5" ry="0.5" width="3" height="1" fill="#3f88c5">
            <animate attributeName="opacity" values="1;0" keyTimes="0;1" dur="0.29411764705882354s" begin="-0.05588235294117647s" repeatCount="indefinite"></animate>
        </rect>
    </g>
    <g transform="rotate(291.6 50 50)">
        <rect x="48.5" y="24.5" rx="1.5" ry="0.5" width="3" height="1" fill="#3f88c5">
            <animate attributeName="opacity" values="1;0" keyTimes="0;1" dur="0.29411764705882354s" begin="-0.052941176470588235s" repeatCount="indefinite"></animate>
        </rect>
    </g>
    <g transform="rotate(295.2 50 50)">
        <rect x="48.5" y="24.5" rx="1.5" ry="0.5" width="3" height="1" fill="#3f88c5">
            <animate attributeName="opacity" values="1;0" keyTimes="0;1" dur="0.29411764705882354s" begin="-0.05s" repeatCount="indefinite"></animate>
        </rect>
    </g>
    <g transform="rotate(298.8 50 50)">
        <rect x="48.5" y="24.5" rx="1.5" ry="0.5" width="3" height="1" fill="#3f88c5">
            <animate attributeName="opacity" values="1;0" keyTimes="0;1" dur="0.29411764705882354s" begin="-0.047058823529411764s" repeatCount="indefinite"></animate>
        </rect>
    </g>
    <g transform="rotate(302.4 50 50)">
        <rect x="48.5" y="24.5" rx="1.5" ry="0.5" width="3" height="1" fill="#3f88c5">
            <animate attributeName="opacity" values="1;0" keyTimes="0;1" dur="0.29411764705882354s" begin="-0.04411764705882353s" repeatCount="indefinite"></animate>
        </rect>
    </g>
    <g transform="rotate(306 50 50)">
        <rect x="48.5" y="24.5" rx="1.5" ry="0.5" width="3" height="1" fill="#3f88c5">
            <animate attributeName="opacity" values="1;0" keyTimes="0;1" dur="0.29411764705882354s" begin="-0.041176470588235294s" repeatCount="indefinite"></animate>
        </rect>
    </g>
    <g transform="rotate(309.6 50 50)">
        <rect x="48.5" y="24.5" rx="1.5" ry="0.5" width="3" height="1" fill="#3f88c5">
            <animate attributeName="opacity" values="1;0" keyTimes="0;1" dur="0.29411764705882354s" begin="-0.03823529411764706s" repeatCount="indefinite"></animate>
        </rect>
    </g>
    <g transform="rotate(313.2 50 50)">
        <rect x="48.5" y="24.5" rx="1.5" ry="0.5" width="3" height="1" fill="#3f88c5">
            <animate attributeName="opacity" values="1;0" keyTimes="0;1" dur="0.29411764705882354s" begin="-0.03529411764705882s" repeatCount="indefinite"></animate>
        </rect>
    </g>
    <g transform="rotate(316.8 50 50)">
        <rect x="48.5" y="24.5" rx="1.5" ry="0.5" width="3" height="1" fill="#3f88c5">
            <animate attributeName="opacity" values="1;0" keyTimes="0;1" dur="0.29411764705882354s" begin="-0.03235294117647059s" repeatCount="indefinite"></animate>
        </rect>
    </g>
    <g transform="rotate(320.4 50 50)">
        <rect x="48.5" y="24.5" rx="1.5" ry="0.5" width="3" height="1" fill="#3f88c5">
            <animate attributeName="opacity" values="1;0" keyTimes="0;1" dur="0.29411764705882354s" begin="-0.029411764705882353s" repeatCount="indefinite"></animate>
        </rect>
    </g>
    <g transform="rotate(324 50 50)">
        <rect x="48.5" y="24.5" rx="1.5" ry="0.5" width="3" height="1" fill="#3f88c5">
            <animate attributeName="opacity" values="1;0" keyTimes="0;1" dur="0.29411764705882354s" begin="-0.026470588235294117s" repeatCount="indefinite"></animate>
        </rect>
    </g>
    <g transform="rotate(327.6 50 50)">
        <rect x="48.5" y="24.5" rx="1.5" ry="0.5" width="3" height="1" fill="#3f88c5">
            <animate attributeName="opacity" values="1;0" keyTimes="0;1" dur="0.29411764705882354s" begin="-0.023529411764705882s" repeatCount="indefinite"></animate>
        </rect>
    </g>
    <g transform="rotate(331.2 50 50)">
        <rect x="48.5" y="24.5" rx="1.5" ry="0.5" width="3" height="1" fill="#3f88c5">
            <animate attributeName="opacity" values="1;0" keyTimes="0;1" dur="0.29411764705882354s" begin="-0.020588235294117647s" repeatCount="indefinite"></animate>
        </rect>
    </g>
    <g transform="rotate(334.8 50 50)">
        <rect x="48.5" y="24.5" rx="1.5" ry="0.5" width="3" height="1" fill="#3f88c5">
            <animate attributeName="opacity" values="1;0" keyTimes="0;1" dur="0.29411764705882354s" begin="-0.01764705882352941s" repeatCount="indefinite"></animate>
        </rect>
    </g>
    <g transform="rotate(338.4 50 50)">
        <rect x="48.5" y="24.5" rx="1.5" ry="0.5" width="3" height="1" fill="#3f88c5">
            <animate attributeName="opacity" values="1;0" keyTimes="0;1" dur="0.29411764705882354s" begin="-0.014705882352941176s" repeatCount="indefinite"></animate>
        </rect>
    </g>
    <g transform="rotate(342 50 50)">
        <rect x="48.5" y="24.5" rx="1.5" ry="0.5" width="3" height="1" fill="#3f88c5">
            <animate attributeName="opacity" values="1;0" keyTimes="0;1" dur="0.29411764705882354s" begin="-0.011764705882352941s" repeatCount="indefinite"></animate>
        </rect>
    </g>
    <g transform="rotate(345.6 50 50)">
        <rect x="48.5" y="24.5" rx="1.5" ry="0.5" width="3" height="1" fill="#3f88c5">
            <animate attributeName="opacity" values="1;0" keyTimes="0;1" dur="0.29411764705882354s" begin="-0.008823529411764706s" repeatCount="indefinite"></animate>
        </rect>
    </g>
    <g transform="rotate(349.2 50 50)">
        <rect x="48.5" y="24.5" rx="1.5" ry="0.5" width="3" height="1" fill="#3f88c5">
            <animate attributeName="opacity" values="1;0" keyTimes="0;1" dur="0.29411764705882354s" begin="-0.0058823529411764705s" repeatCount="indefinite"></animate>
        </rect>
    </g>
    <g transform="rotate(352.8 50 50)">
        <rect x="48.5" y="24.5" rx="1.5" ry="0.5" width="3" height="1" fill="#3f88c5">
            <animate attributeName="opacity" values="1;0" keyTimes="0;1" dur="0.29411764705882354s" begin="-0.0029411764705882353s" repeatCount="indefinite"></animate>
        </rect>
    </g>
    <g transform="rotate(356.4 50 50)">
        <rect x="48.5" y="24.5" rx="1.5" ry="0.5" width="3" height="1" fill="#3f88c5">
            <animate attributeName="opacity" values="1;0" keyTimes="0;1" dur="0.29411764705882354s" begin="0s" repeatCount="indefinite"></animate>
        </rect>
    </g>
</svg>